<svg width="512" height="512" xmlns="http://www.w3.org/2000/svg" xml:space="preserve" enable-background="new 0 0 512 512" version="1.1">

 <g>
  <title>Layer 1</title>
  <path id="svg_1" d="m374.992,128l-39.984,0c-8.844,0 -16,7.156 -16,16l0,32.004c0,8.828 7.156,15.984 16,15.984l45.961,0c22.656,0 37.406,19.339 33.062,42.515l-8.984,47.918c-3.93,21.008 -23.828,37.586 -44.547,37.586l-25.492,0c-8.844,0 -16,7.156 -16,15.984l0,136.015c0,22.086 -17.922,39.984 -40.008,39.984c-0.305,0.023 -26.422,0 -40,0c-8.828,0 -16.008,-7.156 -16.008,-16c0,-8.828 7.18,-16 16.008,-16l32,0c8.844,0 16,-7.156 16,-15.984l0,-135.999c0,-22.102 17.906,-40.008 40.008,-40.008l28.914,0c8.328,0 16.852,-6.648 19.07,-15.031l8.484,-31.953c2.477,-9.309 -2.812,-17.023 -11.852,-17.023l-44.617,0c-22.102,0 -40.008,-17.902 -40.008,-40.003l0,-47.989c0,-22.102 17.906,-40.003 40.008,-40.003l39.984,0c8.844,0 16,-7.16 16,-16.004l0,-32.005c0,-8.824 -7.156,-15.984 -16,-15.984l-63.984,0c-44.188,0 -80.016,35.809 -80.016,79.992l0,71.992c0,22.101 -17.898,40.003 -39.984,40.003l-23.625,0c-9.039,0 -16.383,7.715 -16.383,17.023l0,31.953c0,8.383 6.75,15.031 15.07,15.031l24.938,0c22.086,0 39.984,17.906 39.984,40.008l0,39.983c0,8.844 -7.156,16.008 -15.984,16.008c-8.844,0 -16,-7.164 -16,-16.008l0,-31.999c0,-8.828 -7.172,-15.984 -16,-15.984l-26.5,0c-20.719,0 -37.508,-16.578 -37.508,-37.586l0,-47.918c0,-23.176 18.367,-42.515 41.023,-42.515l22.984,0c8.828,0 16,-7.156 16,-15.984l0,-72.008c0.002,-57.44 46.556,-103.995 103.994,-103.995l79.992,0c22.102,0 40.008,17.902 40.008,39.988l0,48.004c0,22.101 -17.906,40.008 -40.008,40.008l0,0zm-167.984,287.998c8.828,0 15.984,7.156 15.984,16c0,8.828 -7.156,16.008 -15.984,16.008c-8.844,0 -16,-7.18 -16,-16.008c0,-8.844 7.156,-16 16,-16l0,0z" fill="#fb9c36" clip-rule="evenodd" fill-rule="evenodd"/>
 </g>
</svg>