<svg width="510" height="512.459" xmlns="http://www.w3.org/2000/svg" clip-rule="evenodd" fill-rule="evenodd" image-rendering="optimizeQuality" text-rendering="geometricPrecision" shape-rendering="geometricPrecision">

 <g>
  <title>Layer 1</title>
  <path id="svg_1" d="m435.689,74.468c-47.935,-47.997 -111.689,-74.443 -179.618,-74.468c-139.973,0 -253.891,113.906 -253.94,253.916c-0.024,44.758 11.677,88.445 33.898,126.946l-36.029,131.597l134.617,-35.311c37.087,20.238 78.85,30.891 121.345,30.903l0.109,0c139.949,0 253.88,-113.917 253.928,-253.928c0.024,-67.855 -26.361,-131.645 -74.31,-179.643l0,-0.012zm-179.618,390.7l-0.085,0c-37.868,-0.011 -75.016,-10.192 -107.428,-29.417l-7.707,-4.577l-79.886,20.953l21.32,-77.889l-5.017,-7.987c-21.125,-33.605 -32.29,-72.447 -32.266,-112.322c0.049,-116.366 94.729,-211.046 211.155,-211.046c56.373,0.025 109.364,22.003 149.214,61.903c39.853,39.888 61.781,92.927 61.757,149.313c-0.05,116.377 -94.728,211.058 -211.057,211.058l0,0.011zm115.768,-158.067c-6.344,-3.178 -37.537,-18.52 -43.358,-20.639c-5.82,-2.119 -10.044,-3.177 -14.27,3.178c-4.225,6.357 -16.388,20.651 -20.09,24.875c-3.702,4.238 -7.403,4.762 -13.747,1.583c-6.343,-3.178 -26.787,-9.874 -51.029,-31.487c-18.86,-16.827 -31.597,-37.598 -35.297,-43.955c-3.702,-6.355 -0.39,-9.789 2.775,-12.943c2.849,-2.848 6.344,-7.414 9.522,-11.116s4.225,-6.355 6.343,-10.581c2.12,-4.238 1.06,-7.937 -0.522,-11.117c-1.584,-3.177 -14.271,-34.409 -19.568,-47.108c-5.151,-12.37 -10.385,-10.69 -14.269,-10.897c-3.703,-0.183 -7.927,-0.219 -12.164,-0.219s-11.105,1.582 -16.925,7.939c-5.82,6.354 -22.209,21.709 -22.209,52.927c0,31.22 22.733,61.405 25.911,65.642c3.177,4.237 44.745,68.318 108.389,95.812c15.135,6.538 26.957,10.446 36.175,13.368c15.196,4.834 29.027,4.153 39.96,2.52c12.19,-1.825 37.54,-15.353 42.824,-30.172c5.283,-14.818 5.283,-27.529 3.701,-30.172c-1.582,-2.641 -5.819,-4.237 -12.163,-7.414l0.011,-0.024z" fill="#fb9c36"/>
 </g>
</svg>